<?xml version="1.0" encoding="iso-8859-1"?>
<!-- Generator: Adobe Illustrator 19.0.0, SVG Export Plug-In . SVG Version: 6.00 Build 0)  -->
<svg version="1.1" id="Layer_1" xmlns="http://www.w3.org/2000/svg" xmlns:xlink="http://www.w3.org/1999/xlink" x="0px" y="0px"
	 viewBox="0 0 512 512" style="enable-background:new 0 0 512 512;" xml:space="preserve">
<circle cx="256" cy="256" r="256"/>
<path style="fill:#F33052;" d="M384.64,152c4,0,7.36,3.36,7.36,7.36v163.68c0,4-3.36,7.36-7.36,7.36h-46.8h-16v16v36.88
	l-61.68-49.36l-4.4-3.52h-5.6h-122.8c-4,0-7.36-3.36-7.36-7.36V159.36c0-4,3.36-7.36,7.36-7.36H384.64 M384.64,136H127.36
	c-12.8,0-23.36,10.56-23.36,23.36v163.68c0,12.88,10.56,23.36,23.36,23.36h122.8l87.68,70.16V346.4h46.8
	c12.88,0,23.36-10.56,23.36-23.36V159.36C408,146.56,397.44,136,384.64,136L384.64,136z"/>
<g>
	<path style="fill:#FFFFFF;" d="M154.24,261.92c3.52,2.32,9.76,4.72,15.68,4.72c8.64,0,12.72-4.32,12.72-9.76
		c0-5.68-3.36-8.8-12.16-12.08c-11.76-4.16-17.36-10.72-17.36-18.56c0-10.56,8.56-19.2,22.64-19.2c6.64,0,12.48,1.92,16.08,4.08
		l-2.96,8.64c-2.56-1.6-7.28-3.76-13.36-3.76c-7.04,0-10.96,4.08-10.96,8.96c0,5.44,3.92,7.84,12.48,11.12
		c11.36,4.32,17.2,10,17.2,19.76c0,11.52-8.96,19.6-24.48,19.6c-7.2,0-13.84-1.76-18.4-4.48L154.24,261.92z"/>
	<path style="fill:#FFFFFF;" d="M209.52,226.32c0-6.8-0.16-12.32-0.56-17.76h10.4l0.56,10.56h0.4c3.68-6.24,9.76-12.08,20.56-12.08
		c8.96,0,15.68,5.44,18.56,13.12h0.24c2-3.68,4.64-6.48,7.28-8.56c3.92-2.96,8.24-4.64,14.48-4.64c8.64,0,21.52,5.68,21.52,28.4
		v38.56h-11.68V236.8c0-12.56-4.64-20.16-14.24-20.16c-6.8,0-12.08,5.04-14.08,10.8c-0.56,1.6-0.96,3.76-0.96,6v40.48h-11.68v-39.28
		c0-10.4-4.64-18-13.68-18c-7.44,0-12.88,6-14.72,11.92c-0.64,1.76-0.96,3.76-0.96,5.84v39.52h-11.68v-47.6H209.52z"/>
	<path style="fill:#FFFFFF;" d="M320.8,261.92c3.52,2.32,9.76,4.72,15.68,4.72c8.64,0,12.72-4.32,12.72-9.76
		c0-5.68-3.36-8.8-12.16-12.08c-11.76-4.16-17.36-10.72-17.36-18.56c0-10.56,8.56-19.2,22.64-19.2c6.64,0,12.48,1.92,16.08,4.08
		l-2.96,8.64c-2.56-1.6-7.28-3.76-13.36-3.76c-7.04,0-10.96,4.08-10.96,8.96c0,5.44,3.92,7.84,12.48,11.12
		c11.36,4.32,17.2,10,17.2,19.76c0,11.52-8.96,19.6-24.48,19.6c-7.2,0-13.84-1.76-18.4-4.48L320.8,261.92z"/>
</g>
<g>
</g>
<g>
</g>
<g>
</g>
<g>
</g>
<g>
</g>
<g>
</g>
<g>
</g>
<g>
</g>
<g>
</g>
<g>
</g>
<g>
</g>
<g>
</g>
<g>
</g>
<g>
</g>
<g>
</g>
</svg>
