<?xml version="1.0" standalone="no"?>
<!DOCTYPE svg PUBLIC "-//W3C//DTD SVG 20010904//EN"
 "http://www.w3.org/TR/2001/REC-SVG-20010904/DTD/svg10.dtd">
<svg version="1.0" xmlns="http://www.w3.org/2000/svg"
 width="820.000000pt" height="820.000000pt" viewBox="0 0 820.000000 820.000000"
 preserveAspectRatio="xMidYMid meet">
<metadata>
Created by potrace 1.16, written by Peter Selinger 2001-2019
</metadata>
<g transform="translate(0.000000,820.000000) scale(0.100000,-0.100000)"
fill="#000000" stroke="none">
<path d="M3955 7124 c-739 -44 -1397 -331 -1909 -832 -510 -500 -801 -1094
-882 -1802 -20 -173 -14 -563 10 -725 97 -647 382 -1219 831 -1671 461 -463
1015 -743 1675 -845 124 -20 185 -23 420 -23 237 0 295 3 420 23 515 80 952
261 1347 557 631 473 1034 1151 1158 1944 25 158 31 557 12 740 -45 418 -179
823 -395 1187 -466 787 -1272 1315 -2177 1427 -124 15 -404 26 -510 20z m169
-838 c179 -71 234 -98 250 -120 19 -25 21 -44 24 -186 l3 -159 37 -6 c352 -56
586 -196 706 -425 32 -61 75 -195 66 -203 -11 -9 -483 -237 -490 -237 -5 0
-16 26 -25 58 -50 173 -180 302 -349 346 -258 67 -493 -18 -584 -212 -23 -48
-27 -71 -27 -142 0 -106 28 -172 105 -248 70 -69 142 -102 335 -152 689 -178
841 -243 966 -410 92 -123 124 -246 116 -454 -6 -164 -27 -260 -83 -370 -53
-104 -88 -151 -179 -241 -138 -139 -276 -215 -494 -272 l-101 -26 0 -318 c0
-175 -3 -320 -7 -322 -5 -3 -113 39 -242 92 -181 75 -239 103 -255 124 -19 26
-21 44 -24 227 l-3 199 -57 12 c-71 14 -211 63 -277 96 -83 42 -193 123 -247
182 -82 90 -275 399 -258 414 7 6 480 237 491 240 5 1 20 -27 32 -63 71 -210
277 -331 562 -331 234 -1 406 112 452 295 42 171 -66 324 -275 390 -43 13
-144 38 -227 55 -460 97 -609 159 -750 313 -101 111 -154 214 -202 397 -34
124 -37 326 -9 436 57 217 206 380 432 475 68 28 194 60 297 75 l37 6 0 279
c0 218 3 280 13 279 6 0 115 -42 241 -93z"/>
</g>
</svg>
